<svg width="45" height="45" viewBox="0 0 45 45" fill="none" xmlns="http://www.w3.org/2000/svg">
<rect x="1.5" y="1.5" width="42" height="42" rx="21" fill="#040404" stroke="black" stroke-width="3"/>
<path d="M26.3335 18.6665C27.6596 18.6665 28.9314 19.1933 29.869 20.131C30.8067 21.0687 31.3335 22.3404 31.3335 23.6665V29.4998H28.0002V23.6665C28.0002 23.2245 27.8246 22.8006 27.512 22.488C27.1994 22.1754 26.7755 21.9998 26.3335 21.9998C25.8915 21.9998 25.4675 22.1754 25.155 22.488C24.8424 22.8006 24.6668 23.2245 24.6668 23.6665V29.4998H21.3335V23.6665C21.3335 22.3404 21.8603 21.0687 22.798 20.131C23.7356 19.1933 25.0074 18.6665 26.3335 18.6665V18.6665Z" stroke="white" stroke-width="2" stroke-linecap="round" stroke-linejoin="round"/>
<path d="M17.9998 19.5H14.6665V29.5H17.9998V19.5Z" stroke="white" stroke-width="2" stroke-linecap="round" stroke-linejoin="round"/>
<path d="M16.3332 16.9998C17.2536 16.9998 17.9998 16.2536 17.9998 15.3332C17.9998 14.4127 17.2536 13.6665 16.3332 13.6665C15.4127 13.6665 14.6665 14.4127 14.6665 15.3332C14.6665 16.2536 15.4127 16.9998 16.3332 16.9998Z" stroke="white" stroke-width="2" stroke-linecap="round" stroke-linejoin="round"/>
</svg>
