<svg width="45" height="45" viewBox="0 0 45 45" fill="none" xmlns="http://www.w3.org/2000/svg">
<rect x="1.5" y="1.5" width="42" height="42" rx="21" fill="#040404" stroke="black" stroke-width="3"/>
<path d="M25.0835 21.3332C24.3918 21.3332 23.8335 20.7748 23.8335 20.0832V15.9165C23.8335 15.2248 24.3918 14.6665 25.0835 14.6665C25.7752 14.6665 26.3335 15.2248 26.3335 15.9165V20.0832C26.3335 20.7748 25.7752 21.3332 25.0835 21.3332Z" stroke="white" stroke-width="2" stroke-linecap="round" stroke-linejoin="round"/>
<path d="M30.0835 21.3335H28.8335V20.0835C28.8335 19.3918 29.3918 18.8335 30.0835 18.8335C30.7752 18.8335 31.3335 19.3918 31.3335 20.0835C31.3335 20.7752 30.7752 21.3335 30.0835 21.3335Z" stroke="white" stroke-width="2" stroke-linecap="round" stroke-linejoin="round"/>
<path d="M20.9165 24.6665C21.6082 24.6665 22.1665 25.2248 22.1665 25.9165V30.0832C22.1665 30.7748 21.6082 31.3332 20.9165 31.3332C20.2248 31.3332 19.6665 30.7748 19.6665 30.0832V25.9165C19.6665 25.2248 20.2248 24.6665 20.9165 24.6665Z" stroke="white" stroke-width="2" stroke-linecap="round" stroke-linejoin="round"/>
<path d="M15.9165 24.6665H17.1665V25.9165C17.1665 26.6082 16.6082 27.1665 15.9165 27.1665C15.2248 27.1665 14.6665 26.6082 14.6665 25.9165C14.6665 25.2248 15.2248 24.6665 15.9165 24.6665Z" stroke="white" stroke-width="2" stroke-linecap="round" stroke-linejoin="round"/>
<path d="M24.6665 25.0835C24.6665 24.3918 25.2248 23.8335 25.9165 23.8335H30.0832C30.7748 23.8335 31.3332 24.3918 31.3332 25.0835C31.3332 25.7752 30.7748 26.3335 30.0832 26.3335H25.9165C25.2248 26.3335 24.6665 25.7752 24.6665 25.0835Z" stroke="white" stroke-width="2" stroke-linecap="round" stroke-linejoin="round"/>
<path d="M25.9165 28.8335H24.6665V30.0835C24.6665 30.7752 25.2248 31.3335 25.9165 31.3335C26.6082 31.3335 27.1665 30.7752 27.1665 30.0835C27.1665 29.3918 26.6082 28.8335 25.9165 28.8335Z" stroke="white" stroke-width="2" stroke-linecap="round" stroke-linejoin="round"/>
<path d="M21.3332 20.9165C21.3332 20.2248 20.7748 19.6665 20.0832 19.6665H15.9165C15.2248 19.6665 14.6665 20.2248 14.6665 20.9165C14.6665 21.6082 15.2248 22.1665 15.9165 22.1665H20.0832C20.7748 22.1665 21.3332 21.6082 21.3332 20.9165Z" stroke="white" stroke-width="2" stroke-linecap="round" stroke-linejoin="round"/>
<path d="M20.0835 17.1665H21.3335V15.9165C21.3335 15.2248 20.7752 14.6665 20.0835 14.6665C19.3918 14.6665 18.8335 15.2248 18.8335 15.9165C18.8335 16.6082 19.3918 17.1665 20.0835 17.1665Z" stroke="white" stroke-width="2" stroke-linecap="round" stroke-linejoin="round"/>
</svg>
