<svg width="45" height="45" viewBox="0 0 45 45" fill="none" xmlns="http://www.w3.org/2000/svg">
<rect x="1.5" y="1.5" width="42" height="42" rx="21" fill="#040404" stroke="black" stroke-width="3"/>
<g clip-path="url(#clip0)">
<path d="M32.1668 15.7333C31.3688 16.2867 30.4853 16.7099 29.5502 16.9867C29.0483 16.4194 28.3813 16.0173 27.6394 15.8349C26.8974 15.6524 26.1164 15.6983 25.4019 15.9664C24.6874 16.2344 24.0739 16.7118 23.6443 17.3338C23.2148 17.9558 22.9899 18.6925 23.0002 19.4442V20.2634C21.5357 20.3007 20.0846 19.9815 18.776 19.334C17.4674 18.6866 16.3421 17.731 15.5002 16.5525C15.5002 16.5525 12.1668 23.9252 19.6668 27.2019C17.9506 28.3471 15.9061 28.9213 13.8335 28.8403C21.3335 32.9362 30.5002 28.8403 30.5002 19.4197C30.4994 19.1915 30.4771 18.9639 30.4335 18.7397C31.284 17.9152 31.8842 16.8742 32.1668 15.7333V15.7333Z" stroke="white" stroke-width="2" stroke-linecap="round" stroke-linejoin="round"/>
</g>
<defs>
<clipPath id="clip0">
<rect width="20" height="19.6604" fill="white" transform="translate(13 13.2759)"/>
</clipPath>
</defs>
</svg>
