<svg width="45" height="45" viewBox="0 0 45 45" fill="none" xmlns="http://www.w3.org/2000/svg">
<rect x="1.5" y="1.5" width="42" height="42" rx="21" fill="#040404" stroke="black" stroke-width="3"/>
<g clip-path="url(#clip0)">
<path d="M30.7835 18.3502C30.6845 17.9547 30.4829 17.5923 30.199 17.2997C29.9152 17.007 29.5591 16.7945 29.1668 16.6835C27.7335 16.3335 22.0001 16.3335 22.0001 16.3335C22.0001 16.3335 16.2668 16.3335 14.8335 16.7168C14.4412 16.8278 14.0851 17.0404 13.8013 17.333C13.5174 17.6256 13.3158 17.988 13.2168 18.3835C12.9545 19.8381 12.8262 21.3138 12.8335 22.7918C12.8241 24.281 12.9525 25.7679 13.2168 27.2335C13.326 27.6167 13.5321 27.9653 13.8153 28.2456C14.0985 28.5258 14.4492 28.7283 14.8335 28.8335C16.2668 29.2168 22.0001 29.2168 22.0001 29.2168C22.0001 29.2168 27.7335 29.2168 29.1668 28.8335C29.5591 28.7225 29.9152 28.51 30.199 28.2173C30.4829 27.9247 30.6845 27.5623 30.7835 27.1668C31.0438 25.7232 31.1721 24.2588 31.1668 22.7918C31.1762 21.3026 31.0478 19.8157 30.7835 18.3502V18.3502Z" stroke="white" stroke-width="2" stroke-linecap="round" stroke-linejoin="round"/>
<path d="M20.125 25.5169L24.9167 22.7919L20.125 20.0669V25.5169Z" stroke="white" stroke-width="2" stroke-linecap="round" stroke-linejoin="round"/>
</g>
<defs>
<clipPath id="clip0">
<rect width="20" height="20" fill="white" transform="translate(12 13)"/>
</clipPath>
</defs>
</svg>
